<svg width="203" height="31" viewBox="0 0 203 31" fill="none" xmlns="http://www.w3.org/2000/svg">
<path d="M19.8182 10.3125C19.6193 9.62121 19.34 9.01042 18.9801 8.48011C18.6203 7.94034 18.1799 7.4858 17.6591 7.11648C17.1477 6.73769 16.5606 6.44886 15.8977 6.25C15.2443 6.05114 14.5199 5.9517 13.7244 5.9517C12.2377 5.9517 10.9309 6.32102 9.80398 7.05966C8.68655 7.79829 7.81534 8.87311 7.19034 10.2841C6.56534 11.6856 6.25284 13.3996 6.25284 15.4261C6.25284 17.4527 6.56061 19.1761 7.17614 20.5966C7.79167 22.017 8.66288 23.1013 9.78977 23.8494C10.9167 24.5881 12.2472 24.9574 13.7812 24.9574C15.1733 24.9574 16.3617 24.7112 17.3466 24.2188C18.3409 23.7169 19.0985 23.0114 19.6193 22.1023C20.1496 21.1932 20.4148 20.1184 20.4148 18.8778L21.6648 19.0625H14.1648V14.4318H26.3381V18.0966C26.3381 20.6534 25.7983 22.8504 24.7188 24.6875C23.6392 26.5152 22.1525 27.9261 20.2585 28.9205C18.3646 29.9053 16.196 30.3977 13.7528 30.3977C11.0256 30.3977 8.62974 29.7964 6.56534 28.5938C4.50095 27.3816 2.8911 25.6629 1.7358 23.4375C0.589962 21.2027 0.0170455 18.5511 0.0170455 15.483C0.0170455 13.125 0.357955 11.0227 1.03977 9.17614C1.73106 7.32008 2.69697 5.74811 3.9375 4.46023C5.17803 3.17235 6.62216 2.19223 8.26989 1.51989C9.91761 0.847537 11.7027 0.511363 13.625 0.511363C15.2727 0.511363 16.8068 0.75284 18.2273 1.2358C19.6477 1.70928 20.9072 2.38163 22.0057 3.25284C23.1136 4.12405 24.018 5.16098 24.7188 6.36364C25.4195 7.55682 25.8693 8.87311 26.0682 10.3125H19.8182ZM30.8445 30V8.18182H36.7109V11.9886H36.9382C37.3359 10.6345 38.0036 9.61174 38.9411 8.92045C39.8786 8.2197 40.9581 7.86932 42.1797 7.86932C42.4827 7.86932 42.8094 7.88826 43.1598 7.92614C43.5102 7.96402 43.8179 8.0161 44.0831 8.08239V13.4517C43.799 13.3665 43.406 13.2907 42.9041 13.2244C42.4022 13.1581 41.9429 13.125 41.5263 13.125C40.6361 13.125 39.8407 13.3191 39.1399 13.7074C38.4486 14.0862 37.8994 14.6165 37.4922 15.2983C37.0945 15.9801 36.8956 16.7661 36.8956 17.6562V30H30.8445ZM52.8082 30.4119C51.4162 30.4119 50.1757 30.1705 49.0866 29.6875C47.9976 29.1951 47.1359 28.4706 46.5014 27.5142C45.8764 26.5483 45.5639 25.3456 45.5639 23.9062C45.5639 22.6941 45.7865 21.6761 46.2315 20.8523C46.6766 20.0284 47.2827 19.3655 48.0497 18.8636C48.8168 18.3617 49.688 17.983 50.6634 17.7273C51.6482 17.4716 52.6804 17.2917 53.7599 17.1875C55.0289 17.0549 56.0516 16.9318 56.8281 16.8182C57.6046 16.6951 58.1681 16.5152 58.5185 16.2784C58.8688 16.0417 59.044 15.6913 59.044 15.2273V15.142C59.044 14.2424 58.7599 13.5464 58.1918 13.054C57.633 12.5616 56.8376 12.3153 55.8054 12.3153C54.7164 12.3153 53.8499 12.5568 53.206 13.0398C52.562 13.5133 52.1359 14.1098 51.9276 14.8295L46.331 14.375C46.6151 13.0492 47.1738 11.9034 48.0071 10.9375C48.8404 9.96212 49.9152 9.21401 51.2315 8.69318C52.5573 8.16288 54.0914 7.89773 55.8338 7.89773C57.0459 7.89773 58.206 8.03977 59.3139 8.32386C60.4313 8.60795 61.4209 9.0483 62.2827 9.64489C63.1539 10.2415 63.8404 11.0085 64.3423 11.946C64.8442 12.8741 65.0952 13.9867 65.0952 15.2841V30H59.3565V26.9744H59.1861C58.8357 27.6562 58.367 28.2576 57.7798 28.7784C57.1927 29.2898 56.4872 29.6922 55.6634 29.9858C54.8395 30.2699 53.8878 30.4119 52.8082 30.4119ZM54.5412 26.2358C55.4313 26.2358 56.2173 26.0606 56.8991 25.7102C57.581 25.3504 58.116 24.8674 58.5043 24.2614C58.8925 23.6553 59.0866 22.9687 59.0866 22.2017V19.8864C58.8973 20.0095 58.6368 20.1231 58.3054 20.2273C57.9834 20.322 57.6188 20.4119 57.2116 20.4972C56.8045 20.5729 56.3973 20.6439 55.9901 20.7102C55.5829 20.767 55.2135 20.8191 54.8821 20.8665C54.1719 20.9706 53.5516 21.1364 53.0213 21.3636C52.491 21.5909 52.0791 21.8987 51.7855 22.2869C51.492 22.6657 51.3452 23.1392 51.3452 23.7074C51.3452 24.5312 51.6435 25.161 52.2401 25.5966C52.8461 26.0227 53.6132 26.2358 54.5412 26.2358ZM75.8409 17.3864V30H69.7898V8.18182H75.5568V12.0312H75.8125C76.2955 10.7623 77.1051 9.75852 78.2415 9.01989C79.3778 8.27178 80.7557 7.89773 82.375 7.89773C83.8902 7.89773 85.2112 8.22917 86.3381 8.89205C87.465 9.55492 88.3409 10.5019 88.9659 11.733C89.5909 12.9545 89.9034 14.4129 89.9034 16.108V30H83.8523V17.1875C83.8617 15.8523 83.5208 14.8106 82.8295 14.0625C82.1383 13.3049 81.1866 12.9261 79.9744 12.9261C79.16 12.9261 78.4403 13.1013 77.8153 13.4517C77.1998 13.8021 76.7169 14.3134 76.3665 14.9858C76.0256 15.6487 75.8504 16.4489 75.8409 17.3864Z" fill="#FFC300"/>
<path d="M120.454 11.0938H114.232C114.119 10.2888 113.887 9.57386 113.536 8.94886C113.186 8.31439 112.736 7.77462 112.187 7.32955C111.638 6.88447 111.003 6.54356 110.283 6.30682C109.573 6.07008 108.801 5.9517 107.968 5.9517C106.462 5.9517 105.151 6.32576 104.033 7.07386C102.916 7.8125 102.049 8.89205 101.434 10.3125C100.818 11.7235 100.511 13.4375 100.511 15.4545C100.511 17.5284 100.818 19.2708 101.434 20.6818C102.059 22.0928 102.93 23.1581 104.048 23.8778C105.165 24.5975 106.458 24.9574 107.925 24.9574C108.749 24.9574 109.512 24.8485 110.212 24.6307C110.923 24.4129 111.552 24.0956 112.102 23.679C112.651 23.2528 113.105 22.7367 113.465 22.1307C113.835 21.5246 114.09 20.8333 114.232 20.0568L120.454 20.0852C120.293 21.4205 119.89 22.7083 119.246 23.9489C118.612 25.1799 117.755 26.2831 116.675 27.2585C115.605 28.2244 114.327 28.9915 112.84 29.5597C111.363 30.1184 109.692 30.3977 107.826 30.3977C105.231 30.3977 102.911 29.8106 100.866 28.6364C98.8298 27.4621 97.2199 25.7623 96.0362 23.5369C94.862 21.3116 94.2749 18.6174 94.2749 15.4545C94.2749 12.2822 94.8714 9.58333 96.0646 7.35795C97.2578 5.13258 98.8771 3.4375 100.923 2.27273C102.968 1.09848 105.269 0.511363 107.826 0.511363C109.512 0.511363 111.074 0.748105 112.513 1.22159C113.962 1.69508 115.246 2.38636 116.363 3.29545C117.48 4.19507 118.389 5.29829 119.09 6.60511C119.8 7.91193 120.255 9.40814 120.454 11.0938ZM129.332 30H122.741L132.783 0.90909H140.71L150.738 30H144.147L136.86 7.55682H136.633L129.332 30ZM128.92 18.5653H144.488V23.3665H128.92V18.5653ZM154.239 30V0.90909H165.717C167.914 0.90909 169.789 1.30208 171.342 2.08807C172.904 2.86458 174.093 3.9678 174.907 5.39773C175.731 6.81818 176.143 8.48958 176.143 10.4119C176.143 12.3437 175.726 14.0057 174.893 15.3977C174.059 16.7803 172.852 17.8409 171.271 18.5795C169.699 19.3182 167.795 19.6875 165.56 19.6875H157.876V14.7443H164.566C165.74 14.7443 166.716 14.5833 167.492 14.2614C168.269 13.9394 168.846 13.4564 169.225 12.8125C169.613 12.1686 169.808 11.3684 169.808 10.4119C169.808 9.44602 169.613 8.63163 169.225 7.96875C168.846 7.30587 168.264 6.80398 167.478 6.46307C166.701 6.11269 165.721 5.9375 164.538 5.9375H160.39V30H154.239ZM169.95 16.7614L177.18 30H170.39L163.316 16.7614H169.95ZM196.271 9.27557C196.157 8.12973 195.669 7.23958 194.808 6.60511C193.946 5.97064 192.776 5.65341 191.299 5.65341C190.295 5.65341 189.448 5.79545 188.756 6.07955C188.065 6.35417 187.535 6.73769 187.165 7.23011C186.806 7.72254 186.626 8.28125 186.626 8.90625C186.607 9.42708 186.716 9.88163 186.952 10.2699C187.199 10.6581 187.535 10.9943 187.961 11.2784C188.387 11.553 188.879 11.7945 189.438 12.0028C189.997 12.2017 190.594 12.3722 191.228 12.5142L193.842 13.1392C195.111 13.4233 196.275 13.8021 197.336 14.2756C198.397 14.7491 199.315 15.3314 200.092 16.0227C200.868 16.714 201.469 17.5284 201.896 18.4659C202.331 19.4034 202.554 20.4782 202.563 21.6903C202.554 23.4706 202.099 25.0142 201.2 26.321C200.309 27.6184 199.022 28.6269 197.336 29.3466C195.66 30.0568 193.638 30.4119 191.271 30.4119C188.922 30.4119 186.877 30.0521 185.134 29.3324C183.401 28.6127 182.047 27.5473 181.072 26.1364C180.106 24.7159 179.599 22.9593 179.552 20.8665H185.504C185.57 21.8419 185.849 22.6562 186.342 23.3097C186.844 23.9536 187.511 24.4413 188.344 24.7727C189.187 25.0947 190.139 25.2557 191.2 25.2557C192.241 25.2557 193.146 25.1042 193.913 24.8011C194.689 24.4981 195.29 24.0767 195.717 23.5369C196.143 22.9972 196.356 22.3769 196.356 21.6761C196.356 21.0227 196.162 20.4735 195.773 20.0284C195.395 19.5833 194.836 19.2045 194.097 18.892C193.368 18.5795 192.473 18.2955 191.413 18.0398L188.245 17.2443C185.792 16.6477 183.856 15.715 182.435 14.446C181.015 13.1771 180.309 11.4678 180.319 9.31818C180.309 7.55682 180.778 6.01799 181.725 4.7017C182.682 3.38542 183.993 2.35795 185.66 1.61932C187.326 0.880681 189.22 0.511363 191.342 0.511363C193.501 0.511363 195.385 0.880681 196.995 1.61932C198.614 2.35795 199.874 3.38542 200.773 4.7017C201.673 6.01799 202.137 7.54261 202.165 9.27557H196.271Z" fill="#000814"/>
</svg>
