<svg width="203" height="31" viewBox="0 0 203 31" fill="none" xmlns="http://www.w3.org/2000/svg">
<path d="M20.2322 10.3125C20.0334 9.62121 19.754 9.01042 19.3942 8.48011C19.0343 7.94034 18.594 7.4858 18.0732 7.11648C17.5618 6.73769 16.9747 6.44886 16.3118 6.25C15.6584 6.05114 14.9339 5.9517 14.1385 5.9517C12.6518 5.9517 11.3449 6.32102 10.218 7.05966C9.10062 7.79829 8.2294 8.87311 7.6044 10.2841C6.9794 11.6856 6.6669 13.3996 6.6669 15.4261C6.6669 17.4527 6.97467 19.1761 7.5902 20.5966C8.20573 22.017 9.07694 23.1013 10.2038 23.8494C11.3307 24.5881 12.6612 24.9574 14.1953 24.9574C15.5874 24.9574 16.7758 24.7112 17.7607 24.2188C18.755 23.7169 19.5125 23.0114 20.0334 22.1023C20.5637 21.1932 20.8288 20.1184 20.8288 18.8778L22.0788 19.0625H14.5788V14.4318H26.7521V18.0966C26.7521 20.6534 26.2124 22.8504 25.1328 24.6875C24.0533 26.5152 22.5665 27.9261 20.6726 28.9205C18.7786 29.9053 16.6101 30.3977 14.1669 30.3977C11.4396 30.3977 9.0438 29.7964 6.9794 28.5938C4.91501 27.3816 3.30516 25.6629 2.14986 23.4375C1.00402 21.2027 0.431108 18.5511 0.431108 15.483C0.431108 13.125 0.772017 11.0227 1.45384 9.17614C2.14512 7.32008 3.11103 5.74811 4.35156 4.46023C5.59209 3.17235 7.03622 2.19223 8.68395 1.51989C10.3317 0.847537 12.1167 0.511363 14.0391 0.511363C15.6868 0.511363 17.2209 0.75284 18.6413 1.2358C20.0618 1.70928 21.3213 2.38163 22.4197 3.25284C23.5277 4.12405 24.4321 5.16098 25.1328 6.36364C25.8336 7.55682 26.2834 8.87311 26.4822 10.3125H20.2322ZM31.2585 30V8.18182H37.125V11.9886H37.3523C37.75 10.6345 38.4176 9.61174 39.3551 8.92045C40.2926 8.2197 41.3722 7.86932 42.5938 7.86932C42.8968 7.86932 43.2235 7.88826 43.5739 7.92614C43.9242 7.96402 44.232 8.0161 44.4972 8.08239V13.4517C44.2131 13.3665 43.8201 13.2907 43.3182 13.2244C42.8163 13.1581 42.357 13.125 41.9403 13.125C41.0502 13.125 40.2547 13.3191 39.554 13.7074C38.8627 14.0862 38.3134 14.6165 37.9062 15.2983C37.5085 15.9801 37.3097 16.7661 37.3097 17.6562V30H31.2585ZM53.2223 30.4119C51.8303 30.4119 50.5897 30.1705 49.5007 29.6875C48.4117 29.1951 47.55 28.4706 46.9155 27.5142C46.2905 26.5483 45.978 25.3456 45.978 23.9062C45.978 22.6941 46.2005 21.6761 46.6456 20.8523C47.0907 20.0284 47.6967 19.3655 48.4638 18.8636C49.2308 18.3617 50.102 17.983 51.0774 17.7273C52.0623 17.4716 53.0945 17.2917 54.174 17.1875C55.4429 17.0549 56.4657 16.9318 57.2422 16.8182C58.0187 16.6951 58.5822 16.5152 58.9325 16.2784C59.2829 16.0417 59.4581 15.6913 59.4581 15.2273V15.142C59.4581 14.2424 59.174 13.5464 58.6058 13.054C58.0471 12.5616 57.2517 12.3153 56.2195 12.3153C55.1304 12.3153 54.264 12.5568 53.62 13.0398C52.9761 13.5133 52.55 14.1098 52.3416 14.8295L46.745 14.375C47.0291 13.0492 47.5878 11.9034 48.4212 10.9375C49.2545 9.96212 50.3293 9.21401 51.6456 8.69318C52.9714 8.16288 54.5054 7.89773 56.2479 7.89773C57.46 7.89773 58.62 8.03977 59.728 8.32386C60.8454 8.60795 61.835 9.0483 62.6967 9.64489C63.5679 10.2415 64.2545 11.0085 64.7564 11.946C65.2583 12.8741 65.5092 13.9867 65.5092 15.2841V30H59.7706V26.9744H59.6001C59.2498 27.6562 58.781 28.2576 58.1939 28.7784C57.6068 29.2898 56.9013 29.6922 56.0774 29.9858C55.2536 30.2699 54.3018 30.4119 53.2223 30.4119ZM54.9553 26.2358C55.8454 26.2358 56.6314 26.0606 57.3132 25.7102C57.995 25.3504 58.5301 24.8674 58.9183 24.2614C59.3066 23.6553 59.5007 22.9687 59.5007 22.2017V19.8864C59.3113 20.0095 59.0509 20.1231 58.7195 20.2273C58.3975 20.322 58.0329 20.4119 57.6257 20.4972C57.2185 20.5729 56.8113 20.6439 56.4041 20.7102C55.9969 20.767 55.6276 20.8191 55.2962 20.8665C54.5859 20.9706 53.9657 21.1364 53.4354 21.3636C52.9051 21.5909 52.4931 21.8987 52.1996 22.2869C51.906 22.6657 51.7592 23.1392 51.7592 23.7074C51.7592 24.5312 52.0575 25.161 52.6541 25.5966C53.2602 26.0227 54.0272 26.2358 54.9553 26.2358ZM76.255 17.3864V30H70.2038V8.18182H75.9709V12.0312H76.2266C76.7095 10.7623 77.5192 9.75852 78.6555 9.01989C79.7919 8.27178 81.1697 7.89773 82.7891 7.89773C84.3042 7.89773 85.6252 8.22917 86.7521 8.89205C87.879 9.55492 88.755 10.5019 89.38 11.733C90.005 12.9545 90.3175 14.4129 90.3175 16.108V30H84.2663V17.1875C84.2758 15.8523 83.9349 14.8106 83.2436 14.0625C82.5523 13.3049 81.6006 12.9261 80.3885 12.9261C79.5741 12.9261 78.8544 13.1013 78.2294 13.4517C77.6139 13.8021 77.1309 14.3134 76.7805 14.9858C76.4396 15.6487 76.2644 16.4489 76.255 17.3864Z" fill="white"/>
<path d="M120.868 11.0938H114.646C114.533 10.2888 114.301 9.57386 113.95 8.94886C113.6 8.31439 113.15 7.77462 112.601 7.32955C112.052 6.88447 111.417 6.54356 110.697 6.30682C109.987 6.07008 109.215 5.9517 108.382 5.9517C106.876 5.9517 105.565 6.32576 104.447 7.07386C103.33 7.8125 102.464 8.89205 101.848 10.3125C101.232 11.7235 100.925 13.4375 100.925 15.4545C100.925 17.5284 101.232 19.2708 101.848 20.6818C102.473 22.0928 103.344 23.1581 104.462 23.8778C105.579 24.5975 106.872 24.9574 108.339 24.9574C109.163 24.9574 109.926 24.8485 110.626 24.6307C111.337 24.4129 111.966 24.0956 112.516 23.679C113.065 23.2528 113.519 22.7367 113.879 22.1307C114.249 21.5246 114.504 20.8333 114.646 20.0568L120.868 20.0852C120.707 21.4205 120.304 22.7083 119.661 23.9489C119.026 25.1799 118.169 26.2831 117.089 27.2585C116.019 28.2244 114.741 28.9915 113.254 29.5597C111.777 30.1184 110.106 30.3977 108.24 30.3977C105.645 30.3977 103.325 29.8106 101.28 28.6364C99.2438 27.4621 97.634 25.7623 96.4503 23.5369C95.276 21.3116 94.6889 18.6174 94.6889 15.4545C94.6889 12.2822 95.2855 9.58333 96.4787 7.35795C97.6719 5.13258 99.2912 3.4375 101.337 2.27273C103.382 1.09848 105.683 0.511363 108.24 0.511363C109.926 0.511363 111.488 0.748105 112.928 1.22159C114.376 1.69508 115.66 2.38636 116.777 3.29545C117.894 4.19507 118.804 5.29829 119.504 6.60511C120.214 7.91193 120.669 9.40814 120.868 11.0938ZM129.746 30H123.155L133.197 0.90909H141.124L151.152 30H144.561L137.274 7.55682H137.047L129.746 30ZM129.334 18.5653H144.902V23.3665H129.334V18.5653ZM154.653 30V0.90909H166.131C168.328 0.90909 170.203 1.30208 171.756 2.08807C173.318 2.86458 174.507 3.9678 175.321 5.39773C176.145 6.81818 176.557 8.48958 176.557 10.4119C176.557 12.3437 176.14 14.0057 175.307 15.3977C174.473 16.7803 173.266 17.8409 171.685 18.5795C170.113 19.3182 168.209 19.6875 165.974 19.6875H158.29V14.7443H164.98C166.154 14.7443 167.13 14.5833 167.906 14.2614C168.683 13.9394 169.26 13.4564 169.639 12.8125C170.027 12.1686 170.222 11.3684 170.222 10.4119C170.222 9.44602 170.027 8.63163 169.639 7.96875C169.26 7.30587 168.678 6.80398 167.892 6.46307C167.116 6.11269 166.135 5.9375 164.952 5.9375H160.804V30H154.653ZM170.364 16.7614L177.594 30H170.804L163.73 16.7614H170.364ZM196.685 9.27557C196.571 8.12973 196.083 7.23958 195.222 6.60511C194.36 5.97064 193.19 5.65341 191.713 5.65341C190.709 5.65341 189.862 5.79545 189.17 6.07955C188.479 6.35417 187.949 6.73769 187.58 7.23011C187.22 7.72254 187.04 8.28125 187.04 8.90625C187.021 9.42708 187.13 9.88163 187.366 10.2699C187.613 10.6581 187.949 10.9943 188.375 11.2784C188.801 11.553 189.294 11.7945 189.852 12.0028C190.411 12.2017 191.008 12.3722 191.642 12.5142L194.256 13.1392C195.525 13.4233 196.689 13.8021 197.75 14.2756C198.811 14.7491 199.729 15.3314 200.506 16.0227C201.282 16.714 201.884 17.5284 202.31 18.4659C202.745 19.4034 202.968 20.4782 202.977 21.6903C202.968 23.4706 202.513 25.0142 201.614 26.321C200.723 27.6184 199.436 28.6269 197.75 29.3466C196.074 30.0568 194.052 30.4119 191.685 30.4119C189.336 30.4119 187.291 30.0521 185.548 29.3324C183.815 28.6127 182.461 27.5473 181.486 26.1364C180.52 24.7159 180.013 22.9593 179.966 20.8665H185.918C185.984 21.8419 186.263 22.6562 186.756 23.3097C187.258 23.9536 187.925 24.4413 188.759 24.7727C189.601 25.0947 190.553 25.2557 191.614 25.2557C192.655 25.2557 193.56 25.1042 194.327 24.8011C195.103 24.4981 195.705 24.0767 196.131 23.5369C196.557 22.9972 196.77 22.3769 196.77 21.6761C196.77 21.0227 196.576 20.4735 196.188 20.0284C195.809 19.5833 195.25 19.2045 194.511 18.892C193.782 18.5795 192.887 18.2955 191.827 18.0398L188.659 17.2443C186.206 16.6477 184.27 15.715 182.849 14.446C181.429 13.1771 180.723 11.4678 180.733 9.31818C180.723 7.55682 181.192 6.01799 182.139 4.7017C183.096 3.38542 184.407 2.35795 186.074 1.61932C187.741 0.880681 189.634 0.511363 191.756 0.511363C193.915 0.511363 195.799 0.880681 197.409 1.61932C199.028 2.35795 200.288 3.38542 201.188 4.7017C202.087 6.01799 202.551 7.54261 202.58 9.27557H196.685Z" fill="#000814"/>
</svg>
